<svg width="24" height="25" viewBox="0 0 24 25" fill="none" xmlns="http://www.w3.org/2000/svg">
<g id="vuesax/linear/menu">
<g id="menu">
<g id="Group">
<path id="Vector" d="M17.5401 8.80989C18.8987 8.80989 20.0001 7.70851 20.0001 6.34989C20.0001 4.99127 18.8987 3.88989 17.5401 3.88989C16.1814 3.88989 15.0801 4.99127 15.0801 6.34989C15.0801 7.70851 16.1814 8.80989 17.5401 8.80989Z" stroke="#363636" style="stroke:#363636;stroke:color(display-p3 0.2124 0.2124 0.2124);stroke-opacity:1;" stroke-width="1.5" stroke-miterlimit="10" stroke-linecap="round" stroke-linejoin="round"/>
<path id="Vector_2" d="M6.46001 8.80989C7.81863 8.80989 8.92 7.70851 8.92 6.34989C8.92 4.99127 7.81863 3.88989 6.46001 3.88989C5.10139 3.88989 4 4.99127 4 6.34989C4 7.70851 5.10139 8.80989 6.46001 8.80989Z" stroke="#363636" style="stroke:#363636;stroke:color(display-p3 0.2124 0.2124 0.2124);stroke-opacity:1;" stroke-width="1.5" stroke-miterlimit="10" stroke-linecap="round" stroke-linejoin="round"/>
<path id="Vector_3" d="M17.5401 21.1099C18.8987 21.1099 20.0001 20.0086 20.0001 18.6499C20.0001 17.2913 18.8987 16.1899 17.5401 16.1899C16.1814 16.1899 15.0801 17.2913 15.0801 18.6499C15.0801 20.0086 16.1814 21.1099 17.5401 21.1099Z" stroke="#363636" style="stroke:#363636;stroke:color(display-p3 0.2124 0.2124 0.2124);stroke-opacity:1;" stroke-width="1.5" stroke-miterlimit="10" stroke-linecap="round" stroke-linejoin="round"/>
<path id="Vector_4" d="M6.46001 21.1099C7.81863 21.1099 8.92 20.0086 8.92 18.6499C8.92 17.2913 7.81863 16.1899 6.46001 16.1899C5.10139 16.1899 4 17.2913 4 18.6499C4 20.0086 5.10139 21.1099 6.46001 21.1099Z" stroke="#363636" style="stroke:#363636;stroke:color(display-p3 0.2124 0.2124 0.2124);stroke-opacity:1;" stroke-width="1.5" stroke-miterlimit="10" stroke-linecap="round" stroke-linejoin="round"/>
</g>
</g>
</g>
</svg>
